ISO-10303-21;
HEADER;
/* Generated by software containing ST-Developer
 * from STEP Tools, Inc. (www.steptools.com) 
 */

FILE_DESCRIPTION(
/* description */ (''),
/* implementation_level */ '2;1');

FILE_NAME(
/* name */ 'efficientkeyboard_case_base.step',
/* time_stamp */ '2026-09-28T19:29:13-04:00',
/* author */ (''),
/* organization */ (''),
/* preprocessor_version */ 'ST-DEVELOPER v20.2',
/* originating_system */ 'Autodesk Translation Framework v15.15.0.0',
/* authorisation */ '');

FILE_SCHEMA (('AUTOMOTIVE_DESIGN { 1 0 10303 214 3 1 1 }'));
ENDSEC;

DATA;
#10=MECHANICAL_DESIGN_GEOMETRIC_PRESENTATION_REPRESENTATION('',(#13),#1551);
#11=SHAPE_REPRESENTATION_RELATIONSHIP('SRR','None',#1558,#12);
#12=ADVANCED_BREP_SHAPE_REPRESENTATION('',(#14),#1550);
#13=STYLED_ITEM('',(#1567),#14);
#14=MANIFOLD_SOLID_BREP('Body1',#963);
#15=FACE_BOUND('',#151,.T.);
#16=FACE_BOUND('',#158,.T.);
#17=FACE_BOUND('',#161,.T.);
#18=FACE_BOUND('',#165,.T.);
#19=PLANE('',#980);
#20=PLANE('',#984);
#21=PLANE('',#989);
#22=PLANE('',#992);
#23=PLANE('',#993);
#24=PLANE('',#994);
#25=PLANE('',#995);
#26=PLANE('',#996);
#27=PLANE('',#997);
#28=PLANE('',#998);
#29=PLANE('',#999);
#30=PLANE('',#1000);
#31=PLANE('',#1001);
#32=PLANE('',#1002);
#33=PLANE('',#1003);
#34=PLANE('',#1004);
#35=PLANE('',#1005);
#36=PLANE('',#1006);
#37=PLANE('',#1007);
#38=PLANE('',#1008);
#39=PLANE('',#1009);
#40=PLANE('',#1010);
#41=PLANE('',#1011);
#42=PLANE('',#1012);
#43=PLANE('',#1013);
#44=PLANE('',#1014);
#45=PLANE('',#1015);
#46=PLANE('',#1016);
#47=PLANE('',#1017);
#48=PLANE('',#1018);
#49=PLANE('',#1019);
#50=PLANE('',#1020);
#51=PLANE('',#1021);
#52=PLANE('',#1022);
#53=PLANE('',#1023);
#54=PLANE('',#1024);
#55=PLANE('',#1025);
#56=PLANE('',#1026);
#57=PLANE('',#1027);
#58=PLANE('',#1028);
#59=PLANE('',#1029);
#60=PLANE('',#1030);
#61=PLANE('',#1031);
#62=PLANE('',#1032);
#63=PLANE('',#1033);
#64=PLANE('',#1034);
#65=FACE_OUTER_BOUND('',#115,.T.);
#66=FACE_OUTER_BOUND('',#116,.T.);
#67=FACE_OUTER_BOUND('',#117,.T.);
#68=FACE_OUTER_BOUND('',#118,.T.);
#69=FACE_OUTER_BOUND('',#119,.T.);
#70=FACE_OUTER_BOUND('',#120,.T.);
#71=FACE_OUTER_BOUND('',#121,.T.);
#72=FACE_OUTER_BOUND('',#122,.T.);
#73=FACE_OUTER_BOUND('',#123,.T.);
#74=FACE_OUTER_BOUND('',#124,.T.);
#75=FACE_OUTER_BOUND('',#125,.T.);
#76=FACE_OUTER_BOUND('',#126,.T.);
#77=FACE_OUTER_BOUND('',#127,.T.);
#78=FACE_OUTER_BOUND('',#128,.T.);
#79=FACE_OUTER_BOUND('',#129,.T.);
#80=FACE_OUTER_BOUND('',#130,.T.);
#81=FACE_OUTER_BOUND('',#131,.T.);
#82=FACE_OUTER_BOUND('',#132,.T.);
#83=FACE_OUTER_BOUND('',#133,.T.);
#84=FACE_OUTER_BOUND('',#134,.T.);
#85=FACE_OUTER_BOUND('',#135,.T.);
#86=FACE_OUTER_BOUND('',#136,.T.);
#87=FACE_OUTER_BOUND('',#137,.T.);
#88=FACE_OUTER_BOUND('',#138,.T.);
#89=FACE_OUTER_BOUND('',#139,.T.);
#90=FACE_OUTER_BOUND('',#140,.T.);
#91=FACE_OUTER_BOUND('',#141,.T.);
#92=FACE_OUTER_BOUND('',#142,.T.);
#93=FACE_OUTER_BOUND('',#143,.T.);
#94=FACE_OUTER_BOUND('',#144,.T.);
#95=FACE_OUTER_BOUND('',#145,.T.);
#96=FACE_OUTER_BOUND('',#146,.T.);
#97=FACE_OUTER_BOUND('',#147,.T.);
#98=FACE_OUTER_BOUND('',#148,.T.);
#99=FACE_OUTER_BOUND('',#149,.T.);
#100=FACE_OUTER_BOUND('',#150,.T.);
#101=FACE_OUTER_BOUND('',#152,.T.);
#102=FACE_OUTER_BOUND('',#153,.T.);
#103=FACE_OUTER_BOUND('',#154,.T.);
#104=FACE_OUTER_BOUND('',#155,.T.);
#105=FACE_OUTER_BOUND('',#156,.T.);
#106=FACE_OUTER_BOUND('',#157,.T.);
#107=FACE_OUTER_BOUND('',#159,.T.);
#108=FACE_OUTER_BOUND('',#160,.T.);
#109=FACE_OUTER_BOUND('',#162,.T.);
#110=FACE_OUTER_BOUND('',#163,.T.);
#111=FACE_OUTER_BOUND('',#164,.T.);
#112=FACE_OUTER_BOUND('',#166,.T.);
#113=FACE_OUTER_BOUND('',#167,.T.);
#114=FACE_OUTER_BOUND('',#168,.T.);
#115=EDGE_LOOP('',(#645,#646,#647,#648));
#116=EDGE_LOOP('',(#649,#650,#651,#652,#653,#654,#655,#656,#657,#658,#659,
#660,#661,#662,#663,#664));
#117=EDGE_LOOP('',(#665,#666,#667,#668));
#118=EDGE_LOOP('',(#669,#670,#671,#672));
#119=EDGE_LOOP('',(#673,#674,#675,#676));
#120=EDGE_LOOP('',(#677,#678,#679,#680,#681,#682,#683,#684));
#121=EDGE_LOOP('',(#685,#686,#687,#688));
#122=EDGE_LOOP('',(#689,#690,#691,#692));
#123=EDGE_LOOP('',(#693,#694,#695,#696));
#124=EDGE_LOOP('',(#697,#698,#699,#700));
#125=EDGE_LOOP('',(#701,#702,#703,#704));
#126=EDGE_LOOP('',(#705,#706,#707,#708));
#127=EDGE_LOOP('',(#709,#710,#711,#712));
#128=EDGE_LOOP('',(#713,#714,#715,#716));
#129=EDGE_LOOP('',(#717,#718,#719,#720));
#130=EDGE_LOOP('',(#721,#722,#723,#724));
#131=EDGE_LOOP('',(#725,#726,#727,#728));
#132=EDGE_LOOP('',(#729,#730,#731,#732));
#133=EDGE_LOOP('',(#733,#734,#735,#736));
#134=EDGE_LOOP('',(#737,#738,#739,#740));
#135=EDGE_LOOP('',(#741,#742,#743,#744));
#136=EDGE_LOOP('',(#745,#746,#747,#748));
#137=EDGE_LOOP('',(#749,#750,#751,#752));
#138=EDGE_LOOP('',(#753,#754,#755,#756));
#139=EDGE_LOOP('',(#757,#758,#759,#760));
#140=EDGE_LOOP('',(#761,#762,#763,#764));
#141=EDGE_LOOP('',(#765,#766,#767,#768));
#142=EDGE_LOOP('',(#769,#770,#771,#772));
#143=EDGE_LOOP('',(#773,#774,#775,#776,#777,#778,#779,#780));
#144=EDGE_LOOP('',(#781,#782,#783,#784,#785,#786,#787,#788));
#145=EDGE_LOOP('',(#789,#790,#791,#792));
#146=EDGE_LOOP('',(#793,#794,#795,#796,#797,#798,#799,#800,#801,#802,#803,
#804));
#147=EDGE_LOOP('',(#805,#806,#807,#808));
#148=EDGE_LOOP('',(#809,#810,#811,#812));
#149=EDGE_LOOP('',(#813,#814,#815,#816,#817,#818,#819,#820,#821,#822,#823,
#824));
#150=EDGE_LOOP('',(#825,#826,#827,#828));
#151=EDGE_LOOP('',(#829,#830,#831,#832));
#152=EDGE_LOOP('',(#833,#834,#835,#836));
#153=EDGE_LOOP('',(#837,#838,#839,#840));
#154=EDGE_LOOP('',(#841,#842,#843,#844));
#155=EDGE_LOOP('',(#845,#846,#847,#848));
#156=EDGE_LOOP('',(#849,#850,#851,#852));
#157=EDGE_LOOP('',(#853,#854,#855,#856));
#158=EDGE_LOOP('',(#857,#858,#859,#860));
#159=EDGE_LOOP('',(#861,#862,#863,#864));
#160=EDGE_LOOP('',(#865,#866,#867,#868));
#161=EDGE_LOOP('',(#869,#870,#871,#872));
#162=EDGE_LOOP('',(#873,#874,#875,#876));
#163=EDGE_LOOP('',(#877,#878,#879,#880,#881,#882,#883,#884));
#164=EDGE_LOOP('',(#885,#886,#887,#888));
#165=EDGE_LOOP('',(#889,#890,#891,#892));
#166=EDGE_LOOP('',(#893,#894,#895,#896));
#167=EDGE_LOOP('',(#897,#898,#899,#900));
#168=EDGE_LOOP('',(#901,#902,#903,#904,#905,#906,#907,#908));
#169=LINE('',#1283,#293);
#170=LINE('',#1286,#294);
#171=LINE('',#1289,#295);
#172=LINE('',#1293,#296);
#173=LINE('',#1297,#297);
#174=LINE('',#1299,#298);
#175=LINE('',#1301,#299);
#176=LINE('',#1303,#300);
#177=LINE('',#1305,#301);
#178=LINE('',#1307,#302);
#179=LINE('',#1309,#303);
#180=LINE('',#1311,#304);
#181=LINE('',#1313,#305);
#182=LINE('',#1316,#306);
#183=LINE('',#1319,#307);
#184=LINE('',#1320,#308);
#185=LINE('',#1324,#309);
#186=LINE('',#1327,#310);
#187=LINE('',#1330,#311);
#188=LINE('',#1333,#312);
#189=LINE('',#1335,#313);
#190=LINE('',#1336,#314);
#191=LINE('',#1338,#315);
#192=LINE('',#1339,#316);
#193=LINE('',#1342,#317);
#194=LINE('',#1345,#318);
#195=LINE('',#1349,#319);
#196=LINE('',#1351,#320);
#197=LINE('',#1353,#321);
#198=LINE('',#1354,#322);
#199=LINE('',#1357,#323);
#200=LINE('',#1359,#324);
#201=LINE('',#1360,#325);
#202=LINE('',#1363,#326);
#203=LINE('',#1365,#327);
#204=LINE('',#1366,#328);
#205=LINE('',#1368,#329);
#206=LINE('',#1370,#330);
#207=LINE('',#1374,#331);
#208=LINE('',#1376,#332);
#209=LINE('',#1378,#333);
#210=LINE('',#1379,#334);
#211=LINE('',#1382,#335);
#212=LINE('',#1384,#336);
#213=LINE('',#1385,#337);
#214=LINE('',#1388,#338);
#215=LINE('',#1389,#339);
#216=LINE('',#1392,#340);
#217=LINE('',#1393,#341);
#218=LINE('',#1395,#342);
#219=LINE('',#1399,#343);
#220=LINE('',#1401,#344);
#221=LINE('',#1403,#345);
#222=LINE('',#1404,#346);
#223=LINE('',#1407,#347);
#224=LINE('',#1409,#348);
#225=LINE('',#1410,#349);
#226=LINE('',#1413,#350);
#227=LINE('',#1415,#351);
#228=LINE('',#1416,#352);
#229=LINE('',#1418,#353);
#230=LINE('',#1420,#354);
#231=LINE('',#1424,#355);
#232=LINE('',#1426,#356);
#233=LINE('',#1428,#357);
#234=LINE('',#1429,#358);
#235=LINE('',#1432,#359);
#236=LINE('',#1434,#360);
#237=LINE('',#1435,#361);
#238=LINE('',#1438,#362);
#239=LINE('',#1440,#363);
#240=LINE('',#1441,#364);
#241=LINE('',#1443,#365);
#242=LINE('',#1445,#366);
#243=LINE('',#1449,#367);
#244=LINE('',#1450,#368);
#245=LINE('',#1452,#369);
#246=LINE('',#1454,#370);
#247=LINE('',#1456,#371);
#248=LINE('',#1457,#372);
#249=LINE('',#1461,#373);
#250=LINE('',#1463,#374);
#251=LINE('',#1465,#375);
#252=LINE('',#1467,#376);
#253=LINE('',#1468,#377);
#254=LINE('',#1469,#378);
#255=LINE('',#1471,#379);
#256=LINE('',#1474,#380);
#257=LINE('',#1476,#381);
#258=LINE('',#1478,#382);
#259=LINE('',#1480,#383);
#260=LINE('',#1481,#384);
#261=LINE('',#1483,#385);
#262=LINE('',#1485,#386);
#263=LINE('',#1487,#387);
#264=LINE('',#1489,#388);
#265=LINE('',#1490,#389);
#266=LINE('',#1493,#390);
#267=LINE('',#1494,#391);
#268=LINE('',#1497,#392);
#269=LINE('',#1498,#393);
#270=LINE('',#1501,#394);
#271=LINE('',#1503,#395);
#272=LINE('',#1505,#396);
#273=LINE('',#1507,#397);
#274=LINE('',#1508,#398);
#275=LINE('',#1510,#399);
#276=LINE('',#1512,#400);
#277=LINE('',#1513,#401);
#278=LINE('',#1515,#402);
#279=LINE('',#1517,#403);
#280=LINE('',#1519,#404);
#281=LINE('',#1521,#405);
#282=LINE('',#1525,#406);
#283=LINE('',#1527,#407);
#284=LINE('',#1528,#408);
#285=LINE('',#1530,#409);
#286=LINE('',#1531,#410);
#287=LINE('',#1534,#411);
#288=LINE('',#1535,#412);
#289=LINE('',#1539,#413);
#290=LINE('',#1540,#414);
#291=LINE('',#1542,#415);
#292=LINE('',#1546,#416);
#293=VECTOR('',#1041,10.);
#294=VECTOR('',#1044,10.);
#295=VECTOR('',#1047,10.);
#296=VECTOR('',#1050,10.);
#297=VECTOR('',#1053,10.);
#298=VECTOR('',#1054,10.);
#299=VECTOR('',#1055,10.);
#300=VECTOR('',#1056,10.);
#301=VECTOR('',#1057,10.);
#302=VECTOR('',#1058,10.);
#303=VECTOR('',#1059,10.);
#304=VECTOR('',#1060,10.);
#305=VECTOR('',#1061,10.);
#306=VECTOR('',#1064,10.);
#307=VECTOR('',#1067,10.);
#308=VECTOR('',#1068,10.);
#309=VECTOR('',#1073,10.);
#310=VECTOR('',#1076,10.);
#311=VECTOR('',#1079,10.);
#312=VECTOR('',#1082,10.);
#313=VECTOR('',#1083,10.);
#314=VECTOR('',#1084,10.);
#315=VECTOR('',#1085,10.);
#316=VECTOR('',#1086,10.);
#317=VECTOR('',#1089,10.);
#318=VECTOR('',#1094,10.);
#319=VECTOR('',#1097,10.);
#320=VECTOR('',#1098,10.);
#321=VECTOR('',#1099,10.);
#322=VECTOR('',#1100,10.);
#323=VECTOR('',#1103,10.);
#324=VECTOR('',#1104,10.);
#325=VECTOR('',#1105,10.);
#326=VECTOR('',#1108,10.);
#327=VECTOR('',#1109,10.);
#328=VECTOR('',#1110,10.);
#329=VECTOR('',#1113,10.);
#330=VECTOR('',#1116,10.);
#331=VECTOR('',#1119,10.);
#332=VECTOR('',#1120,10.);
#333=VECTOR('',#1121,10.);
#334=VECTOR('',#1122,10.);
#335=VECTOR('',#1125,10.);
#336=VECTOR('',#1126,10.);
#337=VECTOR('',#1127,10.);
#338=VECTOR('',#1130,10.);
#339=VECTOR('',#1131,10.);
#340=VECTOR('',#1134,10.);
#341=VECTOR('',#1135,10.);
#342=VECTOR('',#1138,10.);
#343=VECTOR('',#1141,10.);
#344=VECTOR('',#1142,10.);
#345=VECTOR('',#1143,10.);
#346=VECTOR('',#1144,10.);
#347=VECTOR('',#1147,10.);
#348=VECTOR('',#1148,10.);
#349=VECTOR('',#1149,10.);
#350=VECTOR('',#1152,10.);
#351=VECTOR('',#1153,10.);
#352=VECTOR('',#1154,10.);
#353=VECTOR('',#1157,10.);
#354=VECTOR('',#1160,10.);
#355=VECTOR('',#1163,10.);
#356=VECTOR('',#1164,10.);
#357=VECTOR('',#1165,10.);
#358=VECTOR('',#1166,10.);
#359=VECTOR('',#1169,10.);
#360=VECTOR('',#1170,10.);
#361=VECTOR('',#1171,10.);
#362=VECTOR('',#1174,10.);
#363=VECTOR('',#1175,10.);
#364=VECTOR('',#1176,10.);
#365=VECTOR('',#1179,10.);
#366=VECTOR('',#1182,10.);
#367=VECTOR('',#1185,10.);
#368=VECTOR('',#1186,10.);
#369=VECTOR('',#1187,10.);
#370=VECTOR('',#1188,10.);
#371=VECTOR('',#1189,10.);
#372=VECTOR('',#1190,10.);
#373=VECTOR('',#1193,10.);
#374=VECTOR('',#1194,10.);
#375=VECTOR('',#1195,10.);
#376=VECTOR('',#1196,10.);
#377=VECTOR('',#1197,10.);
#378=VECTOR('',#1198,10.);
#379=VECTOR('',#1201,10.);
#380=VECTOR('',#1204,10.);
#381=VECTOR('',#1205,10.);
#382=VECTOR('',#1206,10.);
#383=VECTOR('',#1207,10.);
#384=VECTOR('',#1208,10.);
#385=VECTOR('',#1209,10.);
#386=VECTOR('',#1210,10.);
#387=VECTOR('',#1211,10.);
#388=VECTOR('',#1212,10.);
#389=VECTOR('',#1213,10.);
#390=VECTOR('',#1216,10.);
#391=VECTOR('',#1217,10.);
#392=VECTOR('',#1220,10.);
#393=VECTOR('',#1221,10.);
#394=VECTOR('',#1224,10.);
#395=VECTOR('',#1225,10.);
#396=VECTOR('',#1226,10.);
#397=VECTOR('',#1227,10.);
#398=VECTOR('',#1228,10.);
#399=VECTOR('',#1229,10.);
#400=VECTOR('',#1230,10.);
#401=VECTOR('',#1231,10.);
#402=VECTOR('',#1234,10.);
#403=VECTOR('',#1237,10.);
#404=VECTOR('',#1240,10.);
#405=VECTOR('',#1243,10.);
#406=VECTOR('',#1248,10.);
#407=VECTOR('',#1249,10.);
#408=VECTOR('',#1250,10.);
#409=VECTOR('',#1253,10.);
#410=VECTOR('',#1254,10.);
#411=VECTOR('',#1257,10.);
#412=VECTOR('',#1258,10.);
#413=VECTOR('',#1263,10.);
#414=VECTOR('',#1264,10.);
#415=VECTOR('',#1267,10.);
#416=VECTOR('',#1274,10.);
#417=CIRCLE('',#978,2.);
#418=CIRCLE('',#979,2.);
#419=CIRCLE('',#981,2.);
#420=CIRCLE('',#982,2.);
#421=CIRCLE('',#983,2.);
#422=CIRCLE('',#986,2.);
#423=CIRCLE('',#988,2.);
#424=CIRCLE('',#991,2.);
#425=VERTEX_POINT('',#1279);
#426=VERTEX_POINT('',#1280);
#427=VERTEX_POINT('',#1282);
#428=VERTEX_POINT('',#1284);
#429=VERTEX_POINT('',#1288);
#430=VERTEX_POINT('',#1290);
#431=VERTEX_POINT('',#1292);
#432=VERTEX_POINT('',#1294);
#433=VERTEX_POINT('',#1296);
#434=VERTEX_POINT('',#1298);
#435=VERTEX_POINT('',#1300);
#436=VERTEX_POINT('',#1302);
#437=VERTEX_POINT('',#1304);
#438=VERTEX_POINT('',#1306);
#439=VERTEX_POINT('',#1308);
#440=VERTEX_POINT('',#1310);
#441=VERTEX_POINT('',#1312);
#442=VERTEX_POINT('',#1314);
#443=VERTEX_POINT('',#1318);
#444=VERTEX_POINT('',#1322);
#445=VERTEX_POINT('',#1326);
#446=VERTEX_POINT('',#1328);
#447=VERTEX_POINT('',#1332);
#448=VERTEX_POINT('',#1334);
#449=VERTEX_POINT('',#1337);
#450=VERTEX_POINT('',#1341);
#451=VERTEX_POINT('',#1347);
#452=VERTEX_POINT('',#1348);
#453=VERTEX_POINT('',#1350);
#454=VERTEX_POINT('',#1352);
#455=VERTEX_POINT('',#1356);
#456=VERTEX_POINT('',#1358);
#457=VERTEX_POINT('',#1362);
#458=VERTEX_POINT('',#1364);
#459=VERTEX_POINT('',#1372);
#460=VERTEX_POINT('',#1373);
#461=VERTEX_POINT('',#1375);
#462=VERTEX_POINT('',#1377);
#463=VERTEX_POINT('',#1381);
#464=VERTEX_POINT('',#1383);
#465=VERTEX_POINT('',#1387);
#466=VERTEX_POINT('',#1391);
#467=VERTEX_POINT('',#1397);
#468=VERTEX_POINT('',#1398);
#469=VERTEX_POINT('',#1400);
#470=VERTEX_POINT('',#1402);
#471=VERTEX_POINT('',#1406);
#472=VERTEX_POINT('',#1408);
#473=VERTEX_POINT('',#1412);
#474=VERTEX_POINT('',#1414);
#475=VERTEX_POINT('',#1422);
#476=VERTEX_POINT('',#1423);
#477=VERTEX_POINT('',#1425);
#478=VERTEX_POINT('',#1427);
#479=VERTEX_POINT('',#1431);
#480=VERTEX_POINT('',#1433);
#481=VERTEX_POINT('',#1437);
#482=VERTEX_POINT('',#1439);
#483=VERTEX_POINT('',#1447);
#484=VERTEX_POINT('',#1448);
#485=VERTEX_POINT('',#1451);
#486=VERTEX_POINT('',#1453);
#487=VERTEX_POINT('',#1455);
#488=VERTEX_POINT('',#1459);
#489=VERTEX_POINT('',#1460);
#490=VERTEX_POINT('',#1462);
#491=VERTEX_POINT('',#1464);
#492=VERTEX_POINT('',#1466);
#493=VERTEX_POINT('',#1473);
#494=VERTEX_POINT('',#1475);
#495=VERTEX_POINT('',#1477);
#496=VERTEX_POINT('',#1479);
#497=VERTEX_POINT('',#1482);
#498=VERTEX_POINT('',#1484);
#499=VERTEX_POINT('',#1486);
#500=VERTEX_POINT('',#1488);
#501=VERTEX_POINT('',#1492);
#502=VERTEX_POINT('',#1496);
#503=VERTEX_POINT('',#1500);
#504=VERTEX_POINT('',#1502);
#505=VERTEX_POINT('',#1504);
#506=VERTEX_POINT('',#1506);
#507=VERTEX_POINT('',#1509);
#508=VERTEX_POINT('',#1511);
#509=VERTEX_POINT('',#1524);
#510=VERTEX_POINT('',#1526);
#511=VERTEX_POINT('',#1533);
#512=VERTEX_POINT('',#1538);
#513=EDGE_CURVE('',#425,#426,#417,.T.);
#514=EDGE_CURVE('',#426,#427,#169,.T.);
#515=EDGE_CURVE('',#427,#428,#418,.T.);
#516=EDGE_CURVE('',#428,#425,#170,.T.);
#517=EDGE_CURVE('',#425,#429,#171,.T.);
#518=EDGE_CURVE('',#430,#429,#419,.T.);
#519=EDGE_CURVE('',#430,#431,#172,.T.);
#520=EDGE_CURVE('',#432,#431,#420,.T.);
#521=EDGE_CURVE('',#432,#433,#173,.T.);
#522=EDGE_CURVE('',#433,#434,#174,.T.);
#523=EDGE_CURVE('',#434,#435,#175,.T.);
#524=EDGE_CURVE('',#435,#436,#176,.T.);
#525=EDGE_CURVE('',#436,#437,#177,.T.);
#526=EDGE_CURVE('',#437,#438,#178,.T.);
#527=EDGE_CURVE('',#438,#439,#179,.T.);
#528=EDGE_CURVE('',#439,#440,#180,.T.);
#529=EDGE_CURVE('',#440,#441,#181,.T.);
#530=EDGE_CURVE('',#442,#441,#421,.T.);
#531=EDGE_CURVE('',#442,#426,#182,.T.);
#532=EDGE_CURVE('',#428,#443,#183,.T.);
#533=EDGE_CURVE('',#429,#443,#184,.T.);
#534=EDGE_CURVE('',#443,#444,#422,.T.);
#535=EDGE_CURVE('',#444,#430,#185,.T.);
#536=EDGE_CURVE('',#441,#445,#186,.T.);
#537=EDGE_CURVE('',#445,#446,#423,.T.);
#538=EDGE_CURVE('',#446,#442,#187,.T.);
#539=EDGE_CURVE('',#440,#447,#188,.T.);
#540=EDGE_CURVE('',#447,#448,#189,.T.);
#541=EDGE_CURVE('',#448,#433,#190,.T.);
#542=EDGE_CURVE('',#449,#432,#191,.T.);
#543=EDGE_CURVE('',#449,#445,#192,.T.);
#544=EDGE_CURVE('',#431,#450,#193,.T.);
#545=EDGE_CURVE('',#450,#449,#424,.T.);
#546=EDGE_CURVE('',#444,#450,#194,.T.);
#547=EDGE_CURVE('',#451,#452,#195,.T.);
#548=EDGE_CURVE('',#453,#451,#196,.T.);
#549=EDGE_CURVE('',#454,#453,#197,.T.);
#550=EDGE_CURVE('',#452,#454,#198,.T.);
#551=EDGE_CURVE('',#455,#451,#199,.T.);
#552=EDGE_CURVE('',#456,#455,#200,.T.);
#553=EDGE_CURVE('',#453,#456,#201,.T.);
#554=EDGE_CURVE('',#452,#457,#202,.T.);
#555=EDGE_CURVE('',#454,#458,#203,.T.);
#556=EDGE_CURVE('',#457,#458,#204,.T.);
#557=EDGE_CURVE('',#458,#456,#205,.T.);
#558=EDGE_CURVE('',#457,#455,#206,.T.);
#559=EDGE_CURVE('',#459,#460,#207,.T.);
#560=EDGE_CURVE('',#461,#459,#208,.T.);
#561=EDGE_CURVE('',#462,#461,#209,.T.);
#562=EDGE_CURVE('',#460,#462,#210,.T.);
#563=EDGE_CURVE('',#463,#459,#211,.T.);
#564=EDGE_CURVE('',#464,#463,#212,.T.);
#565=EDGE_CURVE('',#461,#464,#213,.T.);
#566=EDGE_CURVE('',#465,#464,#214,.T.);
#567=EDGE_CURVE('',#462,#465,#215,.T.);
#568=EDGE_CURVE('',#460,#466,#216,.T.);
#569=EDGE_CURVE('',#466,#465,#217,.T.);
#570=EDGE_CURVE('',#466,#463,#218,.T.);
#571=EDGE_CURVE('',#467,#468,#219,.T.);
#572=EDGE_CURVE('',#467,#469,#220,.T.);
#573=EDGE_CURVE('',#469,#470,#221,.T.);
#574=EDGE_CURVE('',#470,#468,#222,.T.);
#575=EDGE_CURVE('',#471,#467,#223,.T.);
#576=EDGE_CURVE('',#471,#472,#224,.T.);
#577=EDGE_CURVE('',#472,#469,#225,.T.);
#578=EDGE_CURVE('',#468,#473,#226,.T.);
#579=EDGE_CURVE('',#474,#470,#227,.T.);
#580=EDGE_CURVE('',#474,#473,#228,.T.);
#581=EDGE_CURVE('',#472,#474,#229,.T.);
#582=EDGE_CURVE('',#473,#471,#230,.T.);
#583=EDGE_CURVE('',#475,#476,#231,.T.);
#584=EDGE_CURVE('',#475,#477,#232,.T.);
#585=EDGE_CURVE('',#477,#478,#233,.T.);
#586=EDGE_CURVE('',#478,#476,#234,.T.);
#587=EDGE_CURVE('',#479,#475,#235,.T.);
#588=EDGE_CURVE('',#479,#480,#236,.T.);
#589=EDGE_CURVE('',#480,#477,#237,.T.);
#590=EDGE_CURVE('',#476,#481,#238,.T.);
#591=EDGE_CURVE('',#482,#478,#239,.T.);
#592=EDGE_CURVE('',#482,#481,#240,.T.);
#593=EDGE_CURVE('',#480,#482,#241,.T.);
#594=EDGE_CURVE('',#481,#479,#242,.T.);
#595=EDGE_CURVE('',#483,#484,#243,.T.);
#596=EDGE_CURVE('',#447,#483,#244,.T.);
#597=EDGE_CURVE('',#485,#439,#245,.T.);
#598=EDGE_CURVE('',#486,#485,#246,.T.);
#599=EDGE_CURVE('',#487,#486,#247,.T.);
#600=EDGE_CURVE('',#484,#487,#248,.T.);
#601=EDGE_CURVE('',#488,#489,#249,.T.);
#602=EDGE_CURVE('',#490,#488,#250,.T.);
#603=EDGE_CURVE('',#491,#490,#251,.T.);
#604=EDGE_CURVE('',#492,#491,#252,.T.);
#605=EDGE_CURVE('',#434,#492,#253,.T.);
#606=EDGE_CURVE('',#489,#448,#254,.T.);
#607=EDGE_CURVE('',#489,#483,#255,.T.);
#608=EDGE_CURVE('',#493,#487,#256,.T.);
#609=EDGE_CURVE('',#494,#493,#257,.T.);
#610=EDGE_CURVE('',#495,#494,#258,.T.);
#611=EDGE_CURVE('',#496,#495,#259,.T.);
#612=EDGE_CURVE('',#490,#496,#260,.T.);
#613=EDGE_CURVE('',#497,#488,#261,.T.);
#614=EDGE_CURVE('',#498,#497,#262,.T.);
#615=EDGE_CURVE('',#499,#498,#263,.T.);
#616=EDGE_CURVE('',#500,#499,#264,.T.);
#617=EDGE_CURVE('',#484,#500,#265,.T.);
#618=EDGE_CURVE('',#496,#501,#266,.T.);
#619=EDGE_CURVE('',#491,#501,#267,.T.);
#620=EDGE_CURVE('',#502,#486,#268,.T.);
#621=EDGE_CURVE('',#493,#502,#269,.T.);
#622=EDGE_CURVE('',#503,#485,#270,.T.);
#623=EDGE_CURVE('',#504,#503,#271,.T.);
#624=EDGE_CURVE('',#505,#504,#272,.T.);
#625=EDGE_CURVE('',#506,#505,#273,.T.);
#626=EDGE_CURVE('',#492,#506,#274,.T.);
#627=EDGE_CURVE('',#501,#507,#275,.T.);
#628=EDGE_CURVE('',#507,#508,#276,.T.);
#629=EDGE_CURVE('',#508,#502,#277,.T.);
#630=EDGE_CURVE('',#435,#506,#278,.T.);
#631=EDGE_CURVE('',#438,#503,#279,.T.);
#632=EDGE_CURVE('',#495,#507,#280,.T.);
#633=EDGE_CURVE('',#494,#508,#281,.T.);
#634=EDGE_CURVE('',#498,#509,#282,.T.);
#635=EDGE_CURVE('',#509,#510,#283,.T.);
#636=EDGE_CURVE('',#499,#510,#284,.T.);
#637=EDGE_CURVE('',#437,#504,#285,.T.);
#638=EDGE_CURVE('',#436,#505,#286,.T.);
#639=EDGE_CURVE('',#510,#511,#287,.T.);
#640=EDGE_CURVE('',#500,#511,#288,.T.);
#641=EDGE_CURVE('',#497,#512,#289,.T.);
#642=EDGE_CURVE('',#512,#509,#290,.T.);
#643=EDGE_CURVE('',#511,#512,#291,.T.);
#644=EDGE_CURVE('',#446,#427,#292,.T.);
#645=ORIENTED_EDGE('',*,*,#513,.T.);
#646=ORIENTED_EDGE('',*,*,#514,.T.);
#647=ORIENTED_EDGE('',*,*,#515,.T.);
#648=ORIENTED_EDGE('',*,*,#516,.T.);
#649=ORIENTED_EDGE('',*,*,#513,.F.);
#650=ORIENTED_EDGE('',*,*,#517,.T.);
#651=ORIENTED_EDGE('',*,*,#518,.F.);
#652=ORIENTED_EDGE('',*,*,#519,.T.);
#653=ORIENTED_EDGE('',*,*,#520,.F.);
#654=ORIENTED_EDGE('',*,*,#521,.T.);
#655=ORIENTED_EDGE('',*,*,#522,.T.);
#656=ORIENTED_EDGE('',*,*,#523,.T.);
#657=ORIENTED_EDGE('',*,*,#524,.T.);
#658=ORIENTED_EDGE('',*,*,#525,.T.);
#659=ORIENTED_EDGE('',*,*,#526,.T.);
#660=ORIENTED_EDGE('',*,*,#527,.T.);
#661=ORIENTED_EDGE('',*,*,#528,.T.);
#662=ORIENTED_EDGE('',*,*,#529,.T.);
#663=ORIENTED_EDGE('',*,*,#530,.F.);
#664=ORIENTED_EDGE('',*,*,#531,.T.);
#665=ORIENTED_EDGE('',*,*,#516,.F.);
#666=ORIENTED_EDGE('',*,*,#532,.T.);
#667=ORIENTED_EDGE('',*,*,#533,.F.);
#668=ORIENTED_EDGE('',*,*,#517,.F.);
#669=ORIENTED_EDGE('',*,*,#518,.T.);
#670=ORIENTED_EDGE('',*,*,#533,.T.);
#671=ORIENTED_EDGE('',*,*,#534,.T.);
#672=ORIENTED_EDGE('',*,*,#535,.T.);
#673=ORIENTED_EDGE('',*,*,#530,.T.);
#674=ORIENTED_EDGE('',*,*,#536,.T.);
#675=ORIENTED_EDGE('',*,*,#537,.T.);
#676=ORIENTED_EDGE('',*,*,#538,.T.);
#677=ORIENTED_EDGE('',*,*,#536,.F.);
#678=ORIENTED_EDGE('',*,*,#529,.F.);
#679=ORIENTED_EDGE('',*,*,#539,.T.);
#680=ORIENTED_EDGE('',*,*,#540,.T.);
#681=ORIENTED_EDGE('',*,*,#541,.T.);
#682=ORIENTED_EDGE('',*,*,#521,.F.);
#683=ORIENTED_EDGE('',*,*,#542,.F.);
#684=ORIENTED_EDGE('',*,*,#543,.T.);
#685=ORIENTED_EDGE('',*,*,#520,.T.);
#686=ORIENTED_EDGE('',*,*,#544,.T.);
#687=ORIENTED_EDGE('',*,*,#545,.T.);
#688=ORIENTED_EDGE('',*,*,#542,.T.);
#689=ORIENTED_EDGE('',*,*,#535,.F.);
#690=ORIENTED_EDGE('',*,*,#546,.T.);
#691=ORIENTED_EDGE('',*,*,#544,.F.);
#692=ORIENTED_EDGE('',*,*,#519,.F.);
#693=ORIENTED_EDGE('',*,*,#547,.F.);
#694=ORIENTED_EDGE('',*,*,#548,.F.);
#695=ORIENTED_EDGE('',*,*,#549,.F.);
#696=ORIENTED_EDGE('',*,*,#550,.F.);
#697=ORIENTED_EDGE('',*,*,#551,.F.);
#698=ORIENTED_EDGE('',*,*,#552,.F.);
#699=ORIENTED_EDGE('',*,*,#553,.F.);
#700=ORIENTED_EDGE('',*,*,#548,.T.);
#701=ORIENTED_EDGE('',*,*,#554,.F.);
#702=ORIENTED_EDGE('',*,*,#550,.T.);
#703=ORIENTED_EDGE('',*,*,#555,.T.);
#704=ORIENTED_EDGE('',*,*,#556,.F.);
#705=ORIENTED_EDGE('',*,*,#549,.T.);
#706=ORIENTED_EDGE('',*,*,#553,.T.);
#707=ORIENTED_EDGE('',*,*,#557,.F.);
#708=ORIENTED_EDGE('',*,*,#555,.F.);
#709=ORIENTED_EDGE('',*,*,#558,.F.);
#710=ORIENTED_EDGE('',*,*,#556,.T.);
#711=ORIENTED_EDGE('',*,*,#557,.T.);
#712=ORIENTED_EDGE('',*,*,#552,.T.);
#713=ORIENTED_EDGE('',*,*,#559,.F.);
#714=ORIENTED_EDGE('',*,*,#560,.F.);
#715=ORIENTED_EDGE('',*,*,#561,.F.);
#716=ORIENTED_EDGE('',*,*,#562,.F.);
#717=ORIENTED_EDGE('',*,*,#563,.F.);
#718=ORIENTED_EDGE('',*,*,#564,.F.);
#719=ORIENTED_EDGE('',*,*,#565,.F.);
#720=ORIENTED_EDGE('',*,*,#560,.T.);
#721=ORIENTED_EDGE('',*,*,#561,.T.);
#722=ORIENTED_EDGE('',*,*,#565,.T.);
#723=ORIENTED_EDGE('',*,*,#566,.F.);
#724=ORIENTED_EDGE('',*,*,#567,.F.);
#725=ORIENTED_EDGE('',*,*,#568,.F.);
#726=ORIENTED_EDGE('',*,*,#562,.T.);
#727=ORIENTED_EDGE('',*,*,#567,.T.);
#728=ORIENTED_EDGE('',*,*,#569,.F.);
#729=ORIENTED_EDGE('',*,*,#570,.F.);
#730=ORIENTED_EDGE('',*,*,#569,.T.);
#731=ORIENTED_EDGE('',*,*,#566,.T.);
#732=ORIENTED_EDGE('',*,*,#564,.T.);
#733=ORIENTED_EDGE('',*,*,#571,.F.);
#734=ORIENTED_EDGE('',*,*,#572,.T.);
#735=ORIENTED_EDGE('',*,*,#573,.T.);
#736=ORIENTED_EDGE('',*,*,#574,.T.);
#737=ORIENTED_EDGE('',*,*,#575,.F.);
#738=ORIENTED_EDGE('',*,*,#576,.T.);
#739=ORIENTED_EDGE('',*,*,#577,.T.);
#740=ORIENTED_EDGE('',*,*,#572,.F.);
#741=ORIENTED_EDGE('',*,*,#578,.F.);
#742=ORIENTED_EDGE('',*,*,#574,.F.);
#743=ORIENTED_EDGE('',*,*,#579,.F.);
#744=ORIENTED_EDGE('',*,*,#580,.T.);
#745=ORIENTED_EDGE('',*,*,#581,.T.);
#746=ORIENTED_EDGE('',*,*,#579,.T.);
#747=ORIENTED_EDGE('',*,*,#573,.F.);
#748=ORIENTED_EDGE('',*,*,#577,.F.);
#749=ORIENTED_EDGE('',*,*,#582,.F.);
#750=ORIENTED_EDGE('',*,*,#580,.F.);
#751=ORIENTED_EDGE('',*,*,#581,.F.);
#752=ORIENTED_EDGE('',*,*,#576,.F.);
#753=ORIENTED_EDGE('',*,*,#583,.F.);
#754=ORIENTED_EDGE('',*,*,#584,.T.);
#755=ORIENTED_EDGE('',*,*,#585,.T.);
#756=ORIENTED_EDGE('',*,*,#586,.T.);
#757=ORIENTED_EDGE('',*,*,#587,.F.);
#758=ORIENTED_EDGE('',*,*,#588,.T.);
#759=ORIENTED_EDGE('',*,*,#589,.T.);
#760=ORIENTED_EDGE('',*,*,#584,.F.);
#761=ORIENTED_EDGE('',*,*,#590,.F.);
#762=ORIENTED_EDGE('',*,*,#586,.F.);
#763=ORIENTED_EDGE('',*,*,#591,.F.);
#764=ORIENTED_EDGE('',*,*,#592,.T.);
#765=ORIENTED_EDGE('',*,*,#593,.T.);
#766=ORIENTED_EDGE('',*,*,#591,.T.);
#767=ORIENTED_EDGE('',*,*,#585,.F.);
#768=ORIENTED_EDGE('',*,*,#589,.F.);
#769=ORIENTED_EDGE('',*,*,#594,.F.);
#770=ORIENTED_EDGE('',*,*,#592,.F.);
#771=ORIENTED_EDGE('',*,*,#593,.F.);
#772=ORIENTED_EDGE('',*,*,#588,.F.);
#773=ORIENTED_EDGE('',*,*,#595,.F.);
#774=ORIENTED_EDGE('',*,*,#596,.F.);
#775=ORIENTED_EDGE('',*,*,#539,.F.);
#776=ORIENTED_EDGE('',*,*,#528,.F.);
#777=ORIENTED_EDGE('',*,*,#597,.F.);
#778=ORIENTED_EDGE('',*,*,#598,.F.);
#779=ORIENTED_EDGE('',*,*,#599,.F.);
#780=ORIENTED_EDGE('',*,*,#600,.F.);
#781=ORIENTED_EDGE('',*,*,#601,.F.);
#782=ORIENTED_EDGE('',*,*,#602,.F.);
#783=ORIENTED_EDGE('',*,*,#603,.F.);
#784=ORIENTED_EDGE('',*,*,#604,.F.);
#785=ORIENTED_EDGE('',*,*,#605,.F.);
#786=ORIENTED_EDGE('',*,*,#522,.F.);
#787=ORIENTED_EDGE('',*,*,#541,.F.);
#788=ORIENTED_EDGE('',*,*,#606,.F.);
#789=ORIENTED_EDGE('',*,*,#607,.F.);
#790=ORIENTED_EDGE('',*,*,#606,.T.);
#791=ORIENTED_EDGE('',*,*,#540,.F.);
#792=ORIENTED_EDGE('',*,*,#596,.T.);
#793=ORIENTED_EDGE('',*,*,#600,.T.);
#794=ORIENTED_EDGE('',*,*,#608,.F.);
#795=ORIENTED_EDGE('',*,*,#609,.F.);
#796=ORIENTED_EDGE('',*,*,#610,.F.);
#797=ORIENTED_EDGE('',*,*,#611,.F.);
#798=ORIENTED_EDGE('',*,*,#612,.F.);
#799=ORIENTED_EDGE('',*,*,#602,.T.);
#800=ORIENTED_EDGE('',*,*,#613,.F.);
#801=ORIENTED_EDGE('',*,*,#614,.F.);
#802=ORIENTED_EDGE('',*,*,#615,.F.);
#803=ORIENTED_EDGE('',*,*,#616,.F.);
#804=ORIENTED_EDGE('',*,*,#617,.F.);
#805=ORIENTED_EDGE('',*,*,#603,.T.);
#806=ORIENTED_EDGE('',*,*,#612,.T.);
#807=ORIENTED_EDGE('',*,*,#618,.T.);
#808=ORIENTED_EDGE('',*,*,#619,.F.);
#809=ORIENTED_EDGE('',*,*,#599,.T.);
#810=ORIENTED_EDGE('',*,*,#620,.F.);
#811=ORIENTED_EDGE('',*,*,#621,.F.);
#812=ORIENTED_EDGE('',*,*,#608,.T.);
#813=ORIENTED_EDGE('',*,*,#598,.T.);
#814=ORIENTED_EDGE('',*,*,#622,.F.);
#815=ORIENTED_EDGE('',*,*,#623,.F.);
#816=ORIENTED_EDGE('',*,*,#624,.F.);
#817=ORIENTED_EDGE('',*,*,#625,.F.);
#818=ORIENTED_EDGE('',*,*,#626,.F.);
#819=ORIENTED_EDGE('',*,*,#604,.T.);
#820=ORIENTED_EDGE('',*,*,#619,.T.);
#821=ORIENTED_EDGE('',*,*,#627,.T.);
#822=ORIENTED_EDGE('',*,*,#628,.T.);
#823=ORIENTED_EDGE('',*,*,#629,.T.);
#824=ORIENTED_EDGE('',*,*,#620,.T.);
#825=ORIENTED_EDGE('',*,*,#605,.T.);
#826=ORIENTED_EDGE('',*,*,#626,.T.);
#827=ORIENTED_EDGE('',*,*,#630,.F.);
#828=ORIENTED_EDGE('',*,*,#523,.F.);
#829=ORIENTED_EDGE('',*,*,#563,.T.);
#830=ORIENTED_EDGE('',*,*,#559,.T.);
#831=ORIENTED_EDGE('',*,*,#568,.T.);
#832=ORIENTED_EDGE('',*,*,#570,.T.);
#833=ORIENTED_EDGE('',*,*,#597,.T.);
#834=ORIENTED_EDGE('',*,*,#527,.F.);
#835=ORIENTED_EDGE('',*,*,#631,.T.);
#836=ORIENTED_EDGE('',*,*,#622,.T.);
#837=ORIENTED_EDGE('',*,*,#611,.T.);
#838=ORIENTED_EDGE('',*,*,#632,.T.);
#839=ORIENTED_EDGE('',*,*,#627,.F.);
#840=ORIENTED_EDGE('',*,*,#618,.F.);
#841=ORIENTED_EDGE('',*,*,#609,.T.);
#842=ORIENTED_EDGE('',*,*,#621,.T.);
#843=ORIENTED_EDGE('',*,*,#629,.F.);
#844=ORIENTED_EDGE('',*,*,#633,.F.);
#845=ORIENTED_EDGE('',*,*,#610,.T.);
#846=ORIENTED_EDGE('',*,*,#633,.T.);
#847=ORIENTED_EDGE('',*,*,#628,.F.);
#848=ORIENTED_EDGE('',*,*,#632,.F.);
#849=ORIENTED_EDGE('',*,*,#615,.T.);
#850=ORIENTED_EDGE('',*,*,#634,.T.);
#851=ORIENTED_EDGE('',*,*,#635,.T.);
#852=ORIENTED_EDGE('',*,*,#636,.F.);
#853=ORIENTED_EDGE('',*,*,#624,.T.);
#854=ORIENTED_EDGE('',*,*,#637,.F.);
#855=ORIENTED_EDGE('',*,*,#525,.F.);
#856=ORIENTED_EDGE('',*,*,#638,.T.);
#857=ORIENTED_EDGE('',*,*,#575,.T.);
#858=ORIENTED_EDGE('',*,*,#571,.T.);
#859=ORIENTED_EDGE('',*,*,#578,.T.);
#860=ORIENTED_EDGE('',*,*,#582,.T.);
#861=ORIENTED_EDGE('',*,*,#616,.T.);
#862=ORIENTED_EDGE('',*,*,#636,.T.);
#863=ORIENTED_EDGE('',*,*,#639,.T.);
#864=ORIENTED_EDGE('',*,*,#640,.F.);
#865=ORIENTED_EDGE('',*,*,#623,.T.);
#866=ORIENTED_EDGE('',*,*,#631,.F.);
#867=ORIENTED_EDGE('',*,*,#526,.F.);
#868=ORIENTED_EDGE('',*,*,#637,.T.);
#869=ORIENTED_EDGE('',*,*,#551,.T.);
#870=ORIENTED_EDGE('',*,*,#547,.T.);
#871=ORIENTED_EDGE('',*,*,#554,.T.);
#872=ORIENTED_EDGE('',*,*,#558,.T.);
#873=ORIENTED_EDGE('',*,*,#614,.T.);
#874=ORIENTED_EDGE('',*,*,#641,.T.);
#875=ORIENTED_EDGE('',*,*,#642,.T.);
#876=ORIENTED_EDGE('',*,*,#634,.F.);
#877=ORIENTED_EDGE('',*,*,#595,.T.);
#878=ORIENTED_EDGE('',*,*,#617,.T.);
#879=ORIENTED_EDGE('',*,*,#640,.T.);
#880=ORIENTED_EDGE('',*,*,#643,.T.);
#881=ORIENTED_EDGE('',*,*,#641,.F.);
#882=ORIENTED_EDGE('',*,*,#613,.T.);
#883=ORIENTED_EDGE('',*,*,#601,.T.);
#884=ORIENTED_EDGE('',*,*,#607,.T.);
#885=ORIENTED_EDGE('',*,*,#625,.T.);
#886=ORIENTED_EDGE('',*,*,#638,.F.);
#887=ORIENTED_EDGE('',*,*,#524,.F.);
#888=ORIENTED_EDGE('',*,*,#630,.T.);
#889=ORIENTED_EDGE('',*,*,#587,.T.);
#890=ORIENTED_EDGE('',*,*,#583,.T.);
#891=ORIENTED_EDGE('',*,*,#590,.T.);
#892=ORIENTED_EDGE('',*,*,#594,.T.);
#893=ORIENTED_EDGE('',*,*,#642,.F.);
#894=ORIENTED_EDGE('',*,*,#643,.F.);
#895=ORIENTED_EDGE('',*,*,#639,.F.);
#896=ORIENTED_EDGE('',*,*,#635,.F.);
#897=ORIENTED_EDGE('',*,*,#514,.F.);
#898=ORIENTED_EDGE('',*,*,#531,.F.);
#899=ORIENTED_EDGE('',*,*,#538,.F.);
#900=ORIENTED_EDGE('',*,*,#644,.T.);
#901=ORIENTED_EDGE('',*,*,#515,.F.);
#902=ORIENTED_EDGE('',*,*,#644,.F.);
#903=ORIENTED_EDGE('',*,*,#537,.F.);
#904=ORIENTED_EDGE('',*,*,#543,.F.);
#905=ORIENTED_EDGE('',*,*,#545,.F.);
#906=ORIENTED_EDGE('',*,*,#546,.F.);
#907=ORIENTED_EDGE('',*,*,#534,.F.);
#908=ORIENTED_EDGE('',*,*,#532,.F.);
#909=CYLINDRICAL_SURFACE('',#977,2.);
#910=CYLINDRICAL_SURFACE('',#985,2.);
#911=CYLINDRICAL_SURFACE('',#987,2.);
#912=CYLINDRICAL_SURFACE('',#990,2.);
#913=ADVANCED_FACE('',(#65),#909,.T.);
#914=ADVANCED_FACE('',(#66),#19,.T.);
#915=ADVANCED_FACE('',(#67),#20,.T.);
#916=ADVANCED_FACE('',(#68),#910,.T.);
#917=ADVANCED_FACE('',(#69),#911,.T.);
#918=ADVANCED_FACE('',(#70),#21,.T.);
#919=ADVANCED_FACE('',(#71),#912,.T.);
#920=ADVANCED_FACE('',(#72),#22,.T.);
#921=ADVANCED_FACE('',(#73),#23,.F.);
#922=ADVANCED_FACE('',(#74),#24,.T.);
#923=ADVANCED_FACE('',(#75),#25,.T.);
#924=ADVANCED_FACE('',(#76),#26,.T.);
#925=ADVANCED_FACE('',(#77),#27,.T.);
#926=ADVANCED_FACE('',(#78),#28,.F.);
#927=ADVANCED_FACE('',(#79),#29,.T.);
#928=ADVANCED_FACE('',(#80),#30,.T.);
#929=ADVANCED_FACE('',(#81),#31,.T.);
#930=ADVANCED_FACE('',(#82),#32,.T.);
#931=ADVANCED_FACE('',(#83),#33,.T.);
#932=ADVANCED_FACE('',(#84),#34,.T.);
#933=ADVANCED_FACE('',(#85),#35,.T.);
#934=ADVANCED_FACE('',(#86),#36,.T.);
#935=ADVANCED_FACE('',(#87),#37,.F.);
#936=ADVANCED_FACE('',(#88),#38,.T.);
#937=ADVANCED_FACE('',(#89),#39,.T.);
#938=ADVANCED_FACE('',(#90),#40,.T.);
#939=ADVANCED_FACE('',(#91),#41,.T.);
#940=ADVANCED_FACE('',(#92),#42,.F.);
#941=ADVANCED_FACE('',(#93),#43,.F.);
#942=ADVANCED_FACE('',(#94),#44,.F.);
#943=ADVANCED_FACE('',(#95),#45,.T.);
#944=ADVANCED_FACE('',(#96),#46,.F.);
#945=ADVANCED_FACE('',(#97),#47,.T.);
#946=ADVANCED_FACE('',(#98),#48,.T.);
#947=ADVANCED_FACE('',(#99),#49,.T.);
#948=ADVANCED_FACE('',(#100,#15),#50,.F.);
#949=ADVANCED_FACE('',(#101),#51,.F.);
#950=ADVANCED_FACE('',(#102),#52,.T.);
#951=ADVANCED_FACE('',(#103),#53,.T.);
#952=ADVANCED_FACE('',(#104),#54,.T.);
#953=ADVANCED_FACE('',(#105),#55,.F.);
#954=ADVANCED_FACE('',(#106,#16),#56,.F.);
#955=ADVANCED_FACE('',(#107),#57,.F.);
#956=ADVANCED_FACE('',(#108,#17),#58,.F.);
#957=ADVANCED_FACE('',(#109),#59,.F.);
#958=ADVANCED_FACE('',(#110),#60,.F.);
#959=ADVANCED_FACE('',(#111,#18),#61,.F.);
#960=ADVANCED_FACE('',(#112),#62,.F.);
#961=ADVANCED_FACE('',(#113),#63,.T.);
#962=ADVANCED_FACE('',(#114),#64,.F.);
#963=CLOSED_SHELL('',(#913,#914,#915,#916,#917,#918,#919,#920,#921,#922,
#923,#924,#925,#926,#927,#928,#929,#930,#931,#932,#933,#934,#935,#936,#937,
#938,#939,#940,#941,#942,#943,#944,#945,#946,#947,#948,#949,#950,#951,#952,
#953,#954,#955,#956,#957,#958,#959,#960,#961,#962));
#964=DERIVED_UNIT_ELEMENT(#966,1.);
#965=DERIVED_UNIT_ELEMENT(#1553,-3.);
#966=(
MASS_UNIT()
NAMED_UNIT(*)
SI_UNIT(.KILO.,.GRAM.)
);
#967=DERIVED_UNIT((#964,#965));
#968=MEASURE_REPRESENTATION_ITEM('density measure',
POSITIVE_RATIO_MEASURE(7850.),#967);
#969=PROPERTY_DEFINITION_REPRESENTATION(#974,#971);
#970=PROPERTY_DEFINITION_REPRESENTATION(#975,#972);
#971=REPRESENTATION('material name',(#973),#1550);
#972=REPRESENTATION('density',(#968),#1550);
#973=DESCRIPTIVE_REPRESENTATION_ITEM('Steel','Steel');
#974=PROPERTY_DEFINITION('material property','material name',#1560);
#975=PROPERTY_DEFINITION('material property','density of part',#1560);
#976=AXIS2_PLACEMENT_3D('',#1277,#1035,#1036);
#977=AXIS2_PLACEMENT_3D('',#1278,#1037,#1038);
#978=AXIS2_PLACEMENT_3D('',#1281,#1039,#1040);
#979=AXIS2_PLACEMENT_3D('',#1285,#1042,#1043);
#980=AXIS2_PLACEMENT_3D('',#1287,#1045,#1046);
#981=AXIS2_PLACEMENT_3D('',#1291,#1048,#1049);
#982=AXIS2_PLACEMENT_3D('',#1295,#1051,#1052);
#983=AXIS2_PLACEMENT_3D('',#1315,#1062,#1063);
#984=AXIS2_PLACEMENT_3D('',#1317,#1065,#1066);
#985=AXIS2_PLACEMENT_3D('',#1321,#1069,#1070);
#986=AXIS2_PLACEMENT_3D('',#1323,#1071,#1072);
#987=AXIS2_PLACEMENT_3D('',#1325,#1074,#1075);
#988=AXIS2_PLACEMENT_3D('',#1329,#1077,#1078);
#989=AXIS2_PLACEMENT_3D('',#1331,#1080,#1081);
#990=AXIS2_PLACEMENT_3D('',#1340,#1087,#1088);
#991=AXIS2_PLACEMENT_3D('',#1343,#1090,#1091);
#992=AXIS2_PLACEMENT_3D('',#1344,#1092,#1093);
#993=AXIS2_PLACEMENT_3D('',#1346,#1095,#1096);
#994=AXIS2_PLACEMENT_3D('',#1355,#1101,#1102);
#995=AXIS2_PLACEMENT_3D('',#1361,#1106,#1107);
#996=AXIS2_PLACEMENT_3D('',#1367,#1111,#1112);
#997=AXIS2_PLACEMENT_3D('',#1369,#1114,#1115);
#998=AXIS2_PLACEMENT_3D('',#1371,#1117,#1118);
#999=AXIS2_PLACEMENT_3D('',#1380,#1123,#1124);
#1000=AXIS2_PLACEMENT_3D('',#1386,#1128,#1129);
#1001=AXIS2_PLACEMENT_3D('',#1390,#1132,#1133);
#1002=AXIS2_PLACEMENT_3D('',#1394,#1136,#1137);
#1003=AXIS2_PLACEMENT_3D('',#1396,#1139,#1140);
#1004=AXIS2_PLACEMENT_3D('',#1405,#1145,#1146);
#1005=AXIS2_PLACEMENT_3D('',#1411,#1150,#1151);
#1006=AXIS2_PLACEMENT_3D('',#1417,#1155,#1156);
#1007=AXIS2_PLACEMENT_3D('',#1419,#1158,#1159);
#1008=AXIS2_PLACEMENT_3D('',#1421,#1161,#1162);
#1009=AXIS2_PLACEMENT_3D('',#1430,#1167,#1168);
#1010=AXIS2_PLACEMENT_3D('',#1436,#1172,#1173);
#1011=AXIS2_PLACEMENT_3D('',#1442,#1177,#1178);
#1012=AXIS2_PLACEMENT_3D('',#1444,#1180,#1181);
#1013=AXIS2_PLACEMENT_3D('',#1446,#1183,#1184);
#1014=AXIS2_PLACEMENT_3D('',#1458,#1191,#1192);
#1015=AXIS2_PLACEMENT_3D('',#1470,#1199,#1200);
#1016=AXIS2_PLACEMENT_3D('',#1472,#1202,#1203);
#1017=AXIS2_PLACEMENT_3D('',#1491,#1214,#1215);
#1018=AXIS2_PLACEMENT_3D('',#1495,#1218,#1219);
#1019=AXIS2_PLACEMENT_3D('',#1499,#1222,#1223);
#1020=AXIS2_PLACEMENT_3D('',#1514,#1232,#1233);
#1021=AXIS2_PLACEMENT_3D('',#1516,#1235,#1236);
#1022=AXIS2_PLACEMENT_3D('',#1518,#1238,#1239);
#1023=AXIS2_PLACEMENT_3D('',#1520,#1241,#1242);
#1024=AXIS2_PLACEMENT_3D('',#1522,#1244,#1245);
#1025=AXIS2_PLACEMENT_3D('',#1523,#1246,#1247);
#1026=AXIS2_PLACEMENT_3D('',#1529,#1251,#1252);
#1027=AXIS2_PLACEMENT_3D('',#1532,#1255,#1256);
#1028=AXIS2_PLACEMENT_3D('',#1536,#1259,#1260);
#1029=AXIS2_PLACEMENT_3D('',#1537,#1261,#1262);
#1030=AXIS2_PLACEMENT_3D('',#1541,#1265,#1266);
#1031=AXIS2_PLACEMENT_3D('',#1543,#1268,#1269);
#1032=AXIS2_PLACEMENT_3D('',#1544,#1270,#1271);
#1033=AXIS2_PLACEMENT_3D('',#1545,#1272,#1273);
#1034=AXIS2_PLACEMENT_3D('',#1547,#1275,#1276);
#1035=DIRECTION('axis',(0.,0.,1.));
#1036=DIRECTION('refdir',(1.,0.,0.));
#1037=DIRECTION('center_axis',(0.,0.,1.));
#1038=DIRECTION('ref_axis',(0.707106781186548,0.707106781186548,0.));
#1039=DIRECTION('center_axis',(0.,0.,-1.));
#1040=DIRECTION('ref_axis',(0.707106781186548,0.707106781186548,0.));
#1041=DIRECTION('',(0.,0.,-1.));
#1042=DIRECTION('center_axis',(0.,0.,1.));
#1043=DIRECTION('ref_axis',(0.707106781186548,0.707106781186548,0.));
#1044=DIRECTION('',(0.,0.,1.));
#1045=DIRECTION('center_axis',(0.,0.,1.));
#1046=DIRECTION('ref_axis',(1.,0.,0.));
#1047=DIRECTION('',(-1.,0.,0.));
#1048=DIRECTION('center_axis',(0.,0.,-1.));
#1049=DIRECTION('ref_axis',(-0.707106781186549,0.707106781186546,0.));
#1050=DIRECTION('',(0.,-1.,0.));
#1051=DIRECTION('center_axis',(0.,0.,-1.));
#1052=DIRECTION('ref_axis',(-0.707106781186547,-0.707106781186548,0.));
#1053=DIRECTION('',(1.,0.,0.));
#1054=DIRECTION('',(0.,1.,0.));
#1055=DIRECTION('',(-1.,0.,0.));
#1056=DIRECTION('',(0.,1.,0.));
#1057=DIRECTION('',(1.,0.,0.));
#1058=DIRECTION('',(0.,-1.,0.));
#1059=DIRECTION('',(-1.,0.,0.));
#1060=DIRECTION('',(0.,-1.,0.));
#1061=DIRECTION('',(1.,0.,0.));
#1062=DIRECTION('center_axis',(0.,0.,-1.));
#1063=DIRECTION('ref_axis',(0.707106781186546,-0.707106781186549,0.));
#1064=DIRECTION('',(0.,1.,0.));
#1065=DIRECTION('center_axis',(0.,1.,0.));
#1066=DIRECTION('ref_axis',(-1.,0.,0.));
#1067=DIRECTION('',(-1.,0.,0.));
#1068=DIRECTION('',(0.,0.,-1.));
#1069=DIRECTION('center_axis',(0.,0.,1.));
#1070=DIRECTION('ref_axis',(-0.707106781186549,0.707106781186546,0.));
#1071=DIRECTION('center_axis',(0.,0.,1.));
#1072=DIRECTION('ref_axis',(-0.707106781186549,0.707106781186546,0.));
#1073=DIRECTION('',(0.,0.,1.));
#1074=DIRECTION('center_axis',(0.,0.,1.));
#1075=DIRECTION('ref_axis',(0.707106781186546,-0.707106781186549,0.));
#1076=DIRECTION('',(0.,0.,-1.));
#1077=DIRECTION('center_axis',(0.,0.,1.));
#1078=DIRECTION('ref_axis',(0.707106781186546,-0.707106781186549,0.));
#1079=DIRECTION('',(0.,0.,1.));
#1080=DIRECTION('center_axis',(0.,-1.,0.));
#1081=DIRECTION('ref_axis',(1.,0.,0.));
#1082=DIRECTION('',(0.,0.,-1.));
#1083=DIRECTION('',(-1.,0.,0.));
#1084=DIRECTION('',(0.,0.,1.));
#1085=DIRECTION('',(0.,0.,1.));
#1086=DIRECTION('',(1.,0.,0.));
#1087=DIRECTION('center_axis',(0.,0.,1.));
#1088=DIRECTION('ref_axis',(-0.707106781186547,-0.707106781186548,0.));
#1089=DIRECTION('',(0.,0.,-1.));
#1090=DIRECTION('center_axis',(0.,0.,1.));
#1091=DIRECTION('ref_axis',(-0.707106781186547,-0.707106781186548,0.));
#1092=DIRECTION('center_axis',(-1.,0.,0.));
#1093=DIRECTION('ref_axis',(0.,-1.,0.));
#1094=DIRECTION('',(0.,-1.,0.));
#1095=DIRECTION('center_axis',(0.,0.,1.));
#1096=DIRECTION('ref_axis',(1.,0.,0.));
#1097=DIRECTION('',(0.,1.,0.));
#1098=DIRECTION('',(1.,0.,0.));
#1099=DIRECTION('',(0.,-1.,0.));
#1100=DIRECTION('',(-1.,0.,0.));
#1101=DIRECTION('center_axis',(0.,-1.,0.));
#1102=DIRECTION('ref_axis',(1.,0.,0.));
#1103=DIRECTION('',(0.,0.,-1.));
#1104=DIRECTION('',(1.,0.,0.));
#1105=DIRECTION('',(0.,0.,1.));
#1106=DIRECTION('center_axis',(0.,1.,0.));
#1107=DIRECTION('ref_axis',(-1.,0.,0.));
#1108=DIRECTION('',(0.,0.,1.));
#1109=DIRECTION('',(0.,0.,1.));
#1110=DIRECTION('',(-1.,0.,0.));
#1111=DIRECTION('center_axis',(-1.,0.,0.));
#1112=DIRECTION('ref_axis',(0.,-1.,0.));
#1113=DIRECTION('',(0.,-1.,0.));
#1114=DIRECTION('center_axis',(0.,0.,1.));
#1115=DIRECTION('ref_axis',(1.,0.,0.));
#1116=DIRECTION('',(0.,-1.,0.));
#1117=DIRECTION('center_axis',(0.,0.,1.));
#1118=DIRECTION('ref_axis',(1.,0.,0.));
#1119=DIRECTION('',(1.,0.,0.));
#1120=DIRECTION('',(0.,-1.,0.));
#1121=DIRECTION('',(-1.,0.,0.));
#1122=DIRECTION('',(0.,1.,0.));
#1123=DIRECTION('center_axis',(-1.,0.,0.));
#1124=DIRECTION('ref_axis',(0.,-1.,0.));
#1125=DIRECTION('',(0.,0.,-1.));
#1126=DIRECTION('',(0.,-1.,0.));
#1127=DIRECTION('',(0.,0.,1.));
#1128=DIRECTION('center_axis',(0.,1.,0.));
#1129=DIRECTION('ref_axis',(-1.,0.,0.));
#1130=DIRECTION('',(-1.,0.,0.));
#1131=DIRECTION('',(0.,0.,1.));
#1132=DIRECTION('center_axis',(1.,0.,0.));
#1133=DIRECTION('ref_axis',(0.,1.,0.));
#1134=DIRECTION('',(0.,0.,1.));
#1135=DIRECTION('',(0.,1.,0.));
#1136=DIRECTION('center_axis',(0.,0.,1.));
#1137=DIRECTION('ref_axis',(1.,0.,0.));
#1138=DIRECTION('',(-1.,0.,0.));
#1139=DIRECTION('center_axis',(0.,0.,1.));
#1140=DIRECTION('ref_axis',(1.,0.,0.));
#1141=DIRECTION('',(1.,0.,0.));
#1142=DIRECTION('',(0.,-1.,0.));
#1143=DIRECTION('',(1.,0.,0.));
#1144=DIRECTION('',(0.,1.,0.));
#1145=DIRECTION('center_axis',(-1.,0.,0.));
#1146=DIRECTION('ref_axis',(0.,-1.,0.));
#1147=DIRECTION('',(0.,0.,1.));
#1148=DIRECTION('',(0.,-1.,0.));
#1149=DIRECTION('',(0.,0.,1.));
#1150=DIRECTION('center_axis',(1.,0.,0.));
#1151=DIRECTION('ref_axis',(0.,1.,0.));
#1152=DIRECTION('',(0.,0.,-1.));
#1153=DIRECTION('',(0.,0.,1.));
#1154=DIRECTION('',(0.,1.,0.));
#1155=DIRECTION('center_axis',(0.,-1.,0.));
#1156=DIRECTION('ref_axis',(1.,0.,0.));
#1157=DIRECTION('',(1.,0.,0.));
#1158=DIRECTION('center_axis',(0.,0.,1.));
#1159=DIRECTION('ref_axis',(1.,0.,0.));
#1160=DIRECTION('',(-1.,0.,0.));
#1161=DIRECTION('center_axis',(0.,0.,1.));
#1162=DIRECTION('ref_axis',(1.,0.,0.));
#1163=DIRECTION('',(0.,1.,0.));
#1164=DIRECTION('',(1.,0.,0.));
#1165=DIRECTION('',(0.,1.,0.));
#1166=DIRECTION('',(-1.,0.,0.));
#1167=DIRECTION('center_axis',(0.,-1.,0.));
#1168=DIRECTION('ref_axis',(1.,0.,0.));
#1169=DIRECTION('',(0.,0.,1.));
#1170=DIRECTION('',(1.,0.,0.));
#1171=DIRECTION('',(0.,0.,1.));
#1172=DIRECTION('center_axis',(0.,1.,0.));
#1173=DIRECTION('ref_axis',(-1.,0.,0.));
#1174=DIRECTION('',(0.,0.,-1.));
#1175=DIRECTION('',(0.,0.,1.));
#1176=DIRECTION('',(-1.,0.,0.));
#1177=DIRECTION('center_axis',(1.,0.,0.));
#1178=DIRECTION('ref_axis',(0.,1.,0.));
#1179=DIRECTION('',(0.,1.,0.));
#1180=DIRECTION('center_axis',(0.,0.,1.));
#1181=DIRECTION('ref_axis',(1.,0.,0.));
#1182=DIRECTION('',(0.,-1.,0.));
#1183=DIRECTION('center_axis',(1.,0.,0.));
#1184=DIRECTION('ref_axis',(0.,1.,0.));
#1185=DIRECTION('',(0.,0.,1.));
#1186=DIRECTION('',(0.,1.,0.));
#1187=DIRECTION('',(0.,0.,1.));
#1188=DIRECTION('',(0.,-1.,0.));
#1189=DIRECTION('',(0.,0.,1.));
#1190=DIRECTION('',(0.,1.,0.));
#1191=DIRECTION('center_axis',(-1.,0.,0.));
#1192=DIRECTION('ref_axis',(0.,-1.,0.));
#1193=DIRECTION('',(0.,0.,-1.));
#1194=DIRECTION('',(0.,-1.,0.));
#1195=DIRECTION('',(0.,0.,-1.));
#1196=DIRECTION('',(0.,1.,0.));
#1197=DIRECTION('',(0.,0.,-1.));
#1198=DIRECTION('',(0.,-1.,0.));
#1199=DIRECTION('center_axis',(0.,0.,1.));
#1200=DIRECTION('ref_axis',(1.,0.,0.));
#1201=DIRECTION('',(1.,0.,0.));
#1202=DIRECTION('center_axis',(0.,0.,1.));
#1203=DIRECTION('ref_axis',(1.,0.,0.));
#1204=DIRECTION('',(-1.,0.,0.));
#1205=DIRECTION('',(0.,-1.,0.));
#1206=DIRECTION('',(1.,0.,0.));
#1207=DIRECTION('',(0.,1.,0.));
#1208=DIRECTION('',(-1.,0.,0.));
#1209=DIRECTION('',(1.,0.,0.));
#1210=DIRECTION('',(0.,-1.,0.));
#1211=DIRECTION('',(-1.,0.,0.));
#1212=DIRECTION('',(0.,1.,0.));
#1213=DIRECTION('',(1.,0.,0.));
#1214=DIRECTION('center_axis',(0.,1.,0.));
#1215=DIRECTION('ref_axis',(-1.,0.,0.));
#1216=DIRECTION('',(0.,0.,1.));
#1217=DIRECTION('',(-1.,0.,0.));
#1218=DIRECTION('center_axis',(0.,1.,0.));
#1219=DIRECTION('ref_axis',(-1.,0.,0.));
#1220=DIRECTION('',(-1.,0.,0.));
#1221=DIRECTION('',(0.,0.,1.));
#1222=DIRECTION('center_axis',(0.,0.,1.));
#1223=DIRECTION('ref_axis',(1.,0.,0.));
#1224=DIRECTION('',(-1.,0.,0.));
#1225=DIRECTION('',(0.,-1.,0.));
#1226=DIRECTION('',(1.,0.,0.));
#1227=DIRECTION('',(0.,1.,0.));
#1228=DIRECTION('',(-1.,0.,0.));
#1229=DIRECTION('',(0.,1.,0.));
#1230=DIRECTION('',(1.,0.,0.));
#1231=DIRECTION('',(0.,-1.,0.));
#1232=DIRECTION('center_axis',(0.,-1.,0.));
#1233=DIRECTION('ref_axis',(-1.,0.,0.));
#1234=DIRECTION('',(0.,0.,-1.));
#1235=DIRECTION('center_axis',(0.,-1.,0.));
#1236=DIRECTION('ref_axis',(-1.,0.,0.));
#1237=DIRECTION('',(0.,0.,-1.));
#1238=DIRECTION('center_axis',(1.,0.,0.));
#1239=DIRECTION('ref_axis',(0.,1.,0.));
#1240=DIRECTION('',(0.,0.,1.));
#1241=DIRECTION('center_axis',(-1.,0.,0.));
#1242=DIRECTION('ref_axis',(0.,-1.,0.));
#1243=DIRECTION('',(0.,0.,1.));
#1244=DIRECTION('center_axis',(0.,-1.,0.));
#1245=DIRECTION('ref_axis',(1.,0.,0.));
#1246=DIRECTION('center_axis',(0.,1.,0.));
#1247=DIRECTION('ref_axis',(1.,0.,0.));
#1248=DIRECTION('',(0.,0.,-1.));
#1249=DIRECTION('',(1.,0.,0.));
#1250=DIRECTION('',(0.,0.,-1.));
#1251=DIRECTION('center_axis',(0.,1.,0.));
#1252=DIRECTION('ref_axis',(1.,0.,0.));
#1253=DIRECTION('',(0.,0.,-1.));
#1254=DIRECTION('',(0.,0.,-1.));
#1255=DIRECTION('center_axis',(1.,0.,0.));
#1256=DIRECTION('ref_axis',(0.,-1.,0.));
#1257=DIRECTION('',(0.,-1.,0.));
#1258=DIRECTION('',(0.,0.,-1.));
#1259=DIRECTION('center_axis',(1.,0.,0.));
#1260=DIRECTION('ref_axis',(0.,-1.,0.));
#1261=DIRECTION('center_axis',(-1.,0.,0.));
#1262=DIRECTION('ref_axis',(0.,1.,0.));
#1263=DIRECTION('',(0.,0.,-1.));
#1264=DIRECTION('',(0.,1.,0.));
#1265=DIRECTION('center_axis',(0.,-1.,0.));
#1266=DIRECTION('ref_axis',(-1.,0.,0.));
#1267=DIRECTION('',(-1.,0.,0.));
#1268=DIRECTION('center_axis',(-1.,0.,0.));
#1269=DIRECTION('ref_axis',(0.,1.,0.));
#1270=DIRECTION('center_axis',(0.,0.,-1.));
#1271=DIRECTION('ref_axis',(-1.,0.,0.));
#1272=DIRECTION('center_axis',(1.,0.,0.));
#1273=DIRECTION('ref_axis',(0.,1.,0.));
#1274=DIRECTION('',(0.,1.,0.));
#1275=DIRECTION('center_axis',(0.,0.,1.));
#1276=DIRECTION('ref_axis',(1.,0.,0.));
#1277=CARTESIAN_POINT('',(0.,0.,0.));
#1278=CARTESIAN_POINT('Origin',(103.5,103.5,0.));
#1279=CARTESIAN_POINT('',(103.5,105.5,18.6));
#1280=CARTESIAN_POINT('',(105.5,103.5,18.6));
#1281=CARTESIAN_POINT('Origin',(103.5,103.5,18.6));
#1282=CARTESIAN_POINT('',(105.5,103.5,0.));
#1283=CARTESIAN_POINT('',(105.5,103.5,0.));
#1284=CARTESIAN_POINT('',(103.5,105.5,0.));
#1285=CARTESIAN_POINT('Origin',(103.5,103.5,0.));
#1286=CARTESIAN_POINT('',(103.5,105.5,0.));
#1287=CARTESIAN_POINT('Origin',(52.75,52.75,18.6));
#1288=CARTESIAN_POINT('',(1.99999999999999,105.5,18.6));
#1289=CARTESIAN_POINT('',(105.5,105.5,18.6));
#1290=CARTESIAN_POINT('',(0.,103.5,18.6));
#1291=CARTESIAN_POINT('Origin',(2.,103.5,18.6));
#1292=CARTESIAN_POINT('',(0.,1.99999999999999,18.6));
#1293=CARTESIAN_POINT('',(0.,105.5,18.6));
#1294=CARTESIAN_POINT('',(2.,0.,18.6));
#1295=CARTESIAN_POINT('Origin',(2.,2.,18.6));
#1296=CARTESIAN_POINT('',(84.37,0.,18.6));
#1297=CARTESIAN_POINT('',(0.,0.,18.6));
#1298=CARTESIAN_POINT('',(84.37,2.5,18.6));
#1299=CARTESIAN_POINT('',(84.37,28.275,18.6));
#1300=CARTESIAN_POINT('',(2.5,2.5,18.6));
#1301=CARTESIAN_POINT('',(77.875,2.5,18.6));
#1302=CARTESIAN_POINT('',(2.5,103.,18.6));
#1303=CARTESIAN_POINT('',(2.5,27.625,18.6));
#1304=CARTESIAN_POINT('',(103.,103.,18.6));
#1305=CARTESIAN_POINT('',(27.625,103.,18.6));
#1306=CARTESIAN_POINT('',(103.,2.5,18.6));
#1307=CARTESIAN_POINT('',(103.,77.875,18.6));
#1308=CARTESIAN_POINT('',(98.37,2.5,18.6));
#1309=CARTESIAN_POINT('',(77.875,2.5,18.6));
#1310=CARTESIAN_POINT('',(98.37,0.,18.6));
#1311=CARTESIAN_POINT('',(98.37,25.875,18.6));
#1312=CARTESIAN_POINT('',(103.5,0.,18.6));
#1313=CARTESIAN_POINT('',(0.,0.,18.6));
#1314=CARTESIAN_POINT('',(105.5,2.,18.6));
#1315=CARTESIAN_POINT('Origin',(103.5,2.,18.6));
#1316=CARTESIAN_POINT('',(105.5,0.,18.6));
#1317=CARTESIAN_POINT('Origin',(105.5,105.5,0.));
#1318=CARTESIAN_POINT('',(1.99999999999999,105.5,0.));
#1319=CARTESIAN_POINT('',(105.5,105.5,0.));
#1320=CARTESIAN_POINT('',(2.,105.5,0.));
#1321=CARTESIAN_POINT('Origin',(2.,103.5,0.));
#1322=CARTESIAN_POINT('',(0.,103.5,0.));
#1323=CARTESIAN_POINT('Origin',(2.,103.5,0.));
#1324=CARTESIAN_POINT('',(0.,103.5,0.));
#1325=CARTESIAN_POINT('Origin',(103.5,2.,0.));
#1326=CARTESIAN_POINT('',(103.5,0.,0.));
#1327=CARTESIAN_POINT('',(103.5,0.,0.));
#1328=CARTESIAN_POINT('',(105.5,2.,0.));
#1329=CARTESIAN_POINT('Origin',(103.5,2.,0.));
#1330=CARTESIAN_POINT('',(105.5,2.,0.));
#1331=CARTESIAN_POINT('Origin',(0.,0.,0.));
#1332=CARTESIAN_POINT('',(98.37,0.,8.6));
#1333=CARTESIAN_POINT('',(98.37,0.,4.3));
#1334=CARTESIAN_POINT('',(84.37,0.,8.6));
#1335=CARTESIAN_POINT('',(45.685,0.,8.6));
#1336=CARTESIAN_POINT('',(84.37,0.,4.3));
#1337=CARTESIAN_POINT('',(2.,0.,0.));
#1338=CARTESIAN_POINT('',(2.,0.,0.));
#1339=CARTESIAN_POINT('',(0.,0.,0.));
#1340=CARTESIAN_POINT('Origin',(2.,2.,0.));
#1341=CARTESIAN_POINT('',(0.,1.99999999999999,0.));
#1342=CARTESIAN_POINT('',(0.,2.,0.));
#1343=CARTESIAN_POINT('Origin',(2.,2.,0.));
#1344=CARTESIAN_POINT('Origin',(0.,105.5,0.));
#1345=CARTESIAN_POINT('',(0.,105.5,0.));
#1346=CARTESIAN_POINT('Origin',(102.6,32.,16.25));
#1347=CARTESIAN_POINT('',(103.,28.,16.25));
#1348=CARTESIAN_POINT('',(103.,36.,16.25));
#1349=CARTESIAN_POINT('',(103.,67.5,16.25));
#1350=CARTESIAN_POINT('',(102.,28.,16.25));
#1351=CARTESIAN_POINT('',(102.,28.,16.25));
#1352=CARTESIAN_POINT('',(102.,36.,16.25));
#1353=CARTESIAN_POINT('',(102.,36.,16.25));
#1354=CARTESIAN_POINT('',(103.2,36.,16.25));
#1355=CARTESIAN_POINT('Origin',(102.,28.,16.25));
#1356=CARTESIAN_POINT('',(103.,28.,17.05));
#1357=CARTESIAN_POINT('',(103.,28.,17.425));
#1358=CARTESIAN_POINT('',(102.,28.,17.05));
#1359=CARTESIAN_POINT('',(102.,28.,17.05));
#1360=CARTESIAN_POINT('',(102.,28.,16.25));
#1361=CARTESIAN_POINT('Origin',(103.2,36.,16.25));
#1362=CARTESIAN_POINT('',(103.,36.,17.05));
#1363=CARTESIAN_POINT('',(103.,36.,17.425));
#1364=CARTESIAN_POINT('',(102.,36.,17.05));
#1365=CARTESIAN_POINT('',(102.,36.,16.25));
#1366=CARTESIAN_POINT('',(103.2,36.,17.05));
#1367=CARTESIAN_POINT('Origin',(102.,36.,16.25));
#1368=CARTESIAN_POINT('',(102.,36.,17.05));
#1369=CARTESIAN_POINT('Origin',(102.6,32.,17.05));
#1370=CARTESIAN_POINT('',(103.,67.5,17.05));
#1371=CARTESIAN_POINT('Origin',(53.,2.9,16.25));
#1372=CARTESIAN_POINT('',(49.,2.5,16.25));
#1373=CARTESIAN_POINT('',(57.,2.5,16.25));
#1374=CARTESIAN_POINT('',(78.,2.5,16.25));
#1375=CARTESIAN_POINT('',(49.,3.5,16.25));
#1376=CARTESIAN_POINT('',(49.,3.5,16.25));
#1377=CARTESIAN_POINT('',(57.,3.5,16.25));
#1378=CARTESIAN_POINT('',(57.,3.5,16.25));
#1379=CARTESIAN_POINT('',(57.,2.3,16.25));
#1380=CARTESIAN_POINT('Origin',(49.,3.5,16.25));
#1381=CARTESIAN_POINT('',(49.,2.5,17.05));
#1382=CARTESIAN_POINT('',(49.,2.5,17.425));
#1383=CARTESIAN_POINT('',(49.,3.5,17.05));
#1384=CARTESIAN_POINT('',(49.,3.5,17.05));
#1385=CARTESIAN_POINT('',(49.,3.5,16.25));
#1386=CARTESIAN_POINT('Origin',(57.,3.5,16.25));
#1387=CARTESIAN_POINT('',(57.,3.5,17.05));
#1388=CARTESIAN_POINT('',(57.,3.5,17.05));
#1389=CARTESIAN_POINT('',(57.,3.5,16.25));
#1390=CARTESIAN_POINT('Origin',(57.,2.3,16.25));
#1391=CARTESIAN_POINT('',(57.,2.5,17.05));
#1392=CARTESIAN_POINT('',(57.,2.5,17.425));
#1393=CARTESIAN_POINT('',(57.,2.3,17.05));
#1394=CARTESIAN_POINT('Origin',(53.,2.9,17.05));
#1395=CARTESIAN_POINT('',(78.,2.5,17.05));
#1396=CARTESIAN_POINT('Origin',(53.,102.6,17.05));
#1397=CARTESIAN_POINT('',(49.,103.,17.05));
#1398=CARTESIAN_POINT('',(57.,103.,17.05));
#1399=CARTESIAN_POINT('',(27.75,103.,17.05));
#1400=CARTESIAN_POINT('',(49.,102.,17.05));
#1401=CARTESIAN_POINT('',(49.,103.2,17.05));
#1402=CARTESIAN_POINT('',(57.,102.,17.05));
#1403=CARTESIAN_POINT('',(49.,102.,17.05));
#1404=CARTESIAN_POINT('',(57.,102.,17.05));
#1405=CARTESIAN_POINT('Origin',(49.,103.2,16.25));
#1406=CARTESIAN_POINT('',(49.,103.,16.25));
#1407=CARTESIAN_POINT('',(49.,103.,17.425));
#1408=CARTESIAN_POINT('',(49.,102.,16.25));
#1409=CARTESIAN_POINT('',(49.,103.2,16.25));
#1410=CARTESIAN_POINT('',(49.,102.,16.25));
#1411=CARTESIAN_POINT('Origin',(57.,102.,16.25));
#1412=CARTESIAN_POINT('',(57.,103.,16.25));
#1413=CARTESIAN_POINT('',(57.,103.,17.425));
#1414=CARTESIAN_POINT('',(57.,102.,16.25));
#1415=CARTESIAN_POINT('',(57.,102.,16.25));
#1416=CARTESIAN_POINT('',(57.,102.,16.25));
#1417=CARTESIAN_POINT('Origin',(49.,102.,16.25));
#1418=CARTESIAN_POINT('',(49.,102.,16.25));
#1419=CARTESIAN_POINT('Origin',(53.,102.6,16.25));
#1420=CARTESIAN_POINT('',(27.75,103.,16.25));
#1421=CARTESIAN_POINT('Origin',(2.9,53.,17.05));
#1422=CARTESIAN_POINT('',(2.5,49.,17.05));
#1423=CARTESIAN_POINT('',(2.5,57.,17.05));
#1424=CARTESIAN_POINT('',(2.5,27.75,17.05));
#1425=CARTESIAN_POINT('',(3.5,49.,17.05));
#1426=CARTESIAN_POINT('',(2.3,49.,17.05));
#1427=CARTESIAN_POINT('',(3.5,57.,17.05));
#1428=CARTESIAN_POINT('',(3.5,49.,17.05));
#1429=CARTESIAN_POINT('',(3.5,57.,17.05));
#1430=CARTESIAN_POINT('Origin',(2.3,49.,16.25));
#1431=CARTESIAN_POINT('',(2.5,49.,16.25));
#1432=CARTESIAN_POINT('',(2.5,49.,17.425));
#1433=CARTESIAN_POINT('',(3.5,49.,16.25));
#1434=CARTESIAN_POINT('',(2.3,49.,16.25));
#1435=CARTESIAN_POINT('',(3.5,49.,16.25));
#1436=CARTESIAN_POINT('Origin',(3.5,57.,16.25));
#1437=CARTESIAN_POINT('',(2.5,57.,16.25));
#1438=CARTESIAN_POINT('',(2.5,57.,17.425));
#1439=CARTESIAN_POINT('',(3.5,57.,16.25));
#1440=CARTESIAN_POINT('',(3.5,57.,16.25));
#1441=CARTESIAN_POINT('',(3.5,57.,16.25));
#1442=CARTESIAN_POINT('Origin',(3.5,49.,16.25));
#1443=CARTESIAN_POINT('',(3.5,49.,16.25));
#1444=CARTESIAN_POINT('Origin',(2.9,53.,16.25));
#1445=CARTESIAN_POINT('',(2.5,27.75,16.25));
#1446=CARTESIAN_POINT('Origin',(98.37,-1.,8.6));
#1447=CARTESIAN_POINT('',(98.37,2.5,8.6));
#1448=CARTESIAN_POINT('',(98.37,2.5,13.5));
#1449=CARTESIAN_POINT('',(98.37,2.5,13.6));
#1450=CARTESIAN_POINT('',(98.37,-1.,8.6));
#1451=CARTESIAN_POINT('',(98.37,2.5,14.5));
#1452=CARTESIAN_POINT('',(98.37,2.5,13.6));
#1453=CARTESIAN_POINT('',(98.37,3.8,14.5));
#1454=CARTESIAN_POINT('',(98.37,25.875,14.5));
#1455=CARTESIAN_POINT('',(98.37,3.8,13.5));
#1456=CARTESIAN_POINT('',(98.37,3.8,11.05));
#1457=CARTESIAN_POINT('',(98.37,25.875,13.5));
#1458=CARTESIAN_POINT('Origin',(84.37,3.8,8.6));
#1459=CARTESIAN_POINT('',(84.37,2.5,13.5));
#1460=CARTESIAN_POINT('',(84.37,2.5,8.6));
#1461=CARTESIAN_POINT('',(84.37,2.5,13.6));
#1462=CARTESIAN_POINT('',(84.37,3.8,13.5));
#1463=CARTESIAN_POINT('',(84.37,28.275,13.5));
#1464=CARTESIAN_POINT('',(84.37,3.8,14.5));
#1465=CARTESIAN_POINT('',(84.37,3.8,11.05));
#1466=CARTESIAN_POINT('',(84.37,2.5,14.5));
#1467=CARTESIAN_POINT('',(84.37,28.275,14.5));
#1468=CARTESIAN_POINT('',(84.37,2.5,13.6));
#1469=CARTESIAN_POINT('',(84.37,3.8,8.6));
#1470=CARTESIAN_POINT('Origin',(91.37,1.4,8.6));
#1471=CARTESIAN_POINT('',(97.185,2.5,8.6));
#1472=CARTESIAN_POINT('Origin',(52.75,52.75,13.5));
#1473=CARTESIAN_POINT('',(101.7,3.80000000000001,13.5));
#1474=CARTESIAN_POINT('',(103.2,3.8,13.5));
#1475=CARTESIAN_POINT('',(101.7,101.7,13.5));
#1476=CARTESIAN_POINT('',(101.7,101.7,13.5));
#1477=CARTESIAN_POINT('',(3.8,101.7,13.5));
#1478=CARTESIAN_POINT('',(2.3,101.7,13.5));
#1479=CARTESIAN_POINT('',(3.8,3.8,13.5));
#1480=CARTESIAN_POINT('',(3.8,3.8,13.5));
#1481=CARTESIAN_POINT('',(103.2,3.8,13.5));
#1482=CARTESIAN_POINT('',(2.5,2.5,13.5));
#1483=CARTESIAN_POINT('',(77.875,2.5,13.5));
#1484=CARTESIAN_POINT('',(2.5,103.,13.5));
#1485=CARTESIAN_POINT('',(2.5,27.625,13.5));
#1486=CARTESIAN_POINT('',(103.,103.,13.5));
#1487=CARTESIAN_POINT('',(27.625,103.,13.5));
#1488=CARTESIAN_POINT('',(103.,2.5,13.5));
#1489=CARTESIAN_POINT('',(103.,77.875,13.5));
#1490=CARTESIAN_POINT('',(77.875,2.5,13.5));
#1491=CARTESIAN_POINT('Origin',(101.7,3.8,13.5));
#1492=CARTESIAN_POINT('',(3.8,3.80000000000001,14.5));
#1493=CARTESIAN_POINT('',(3.8,3.8,13.5));
#1494=CARTESIAN_POINT('',(103.2,3.8,14.5));
#1495=CARTESIAN_POINT('Origin',(101.7,3.8,13.5));
#1496=CARTESIAN_POINT('',(101.7,3.80000000000001,14.5));
#1497=CARTESIAN_POINT('',(103.2,3.8,14.5));
#1498=CARTESIAN_POINT('',(101.7,3.80000000000001,13.5));
#1499=CARTESIAN_POINT('Origin',(52.75,52.75,14.5));
#1500=CARTESIAN_POINT('',(103.,2.5,14.5));
#1501=CARTESIAN_POINT('',(77.875,2.5,14.5));
#1502=CARTESIAN_POINT('',(103.,103.,14.5));
#1503=CARTESIAN_POINT('',(103.,77.875,14.5));
#1504=CARTESIAN_POINT('',(2.5,103.,14.5));
#1505=CARTESIAN_POINT('',(27.625,103.,14.5));
#1506=CARTESIAN_POINT('',(2.5,2.5,14.5));
#1507=CARTESIAN_POINT('',(2.5,27.625,14.5));
#1508=CARTESIAN_POINT('',(77.875,2.5,14.5));
#1509=CARTESIAN_POINT('',(3.8,101.7,14.5));
#1510=CARTESIAN_POINT('',(3.8,3.8,14.5));
#1511=CARTESIAN_POINT('',(101.7,101.7,14.5));
#1512=CARTESIAN_POINT('',(2.3,101.7,14.5));
#1513=CARTESIAN_POINT('',(101.7,101.7,14.5));
#1514=CARTESIAN_POINT('Origin',(103.,2.5,18.6));
#1515=CARTESIAN_POINT('',(2.5,2.5,18.6));
#1516=CARTESIAN_POINT('Origin',(103.,2.5,18.6));
#1517=CARTESIAN_POINT('',(103.,2.5,18.6));
#1518=CARTESIAN_POINT('Origin',(3.8,3.8,13.5));
#1519=CARTESIAN_POINT('',(3.8,101.7,13.5));
#1520=CARTESIAN_POINT('Origin',(101.7,101.7,13.5));
#1521=CARTESIAN_POINT('',(101.7,101.7,13.5));
#1522=CARTESIAN_POINT('Origin',(3.8,101.7,13.5));
#1523=CARTESIAN_POINT('Origin',(2.5,103.,18.6));
#1524=CARTESIAN_POINT('',(2.5,103.,2.5));
#1525=CARTESIAN_POINT('',(2.5,103.,18.6));
#1526=CARTESIAN_POINT('',(103.,103.,2.5));
#1527=CARTESIAN_POINT('',(103.,103.,2.5));
#1528=CARTESIAN_POINT('',(103.,103.,18.6));
#1529=CARTESIAN_POINT('Origin',(2.5,103.,18.6));
#1530=CARTESIAN_POINT('',(103.,103.,18.6));
#1531=CARTESIAN_POINT('',(2.5,103.,18.6));
#1532=CARTESIAN_POINT('Origin',(103.,103.,18.6));
#1533=CARTESIAN_POINT('',(103.,2.5,2.5));
#1534=CARTESIAN_POINT('',(103.,2.5,2.5));
#1535=CARTESIAN_POINT('',(103.,2.5,18.6));
#1536=CARTESIAN_POINT('Origin',(103.,103.,18.6));
#1537=CARTESIAN_POINT('Origin',(2.5,2.5,18.6));
#1538=CARTESIAN_POINT('',(2.5,2.5,2.5));
#1539=CARTESIAN_POINT('',(2.5,2.5,18.6));
#1540=CARTESIAN_POINT('',(2.5,103.,2.5));
#1541=CARTESIAN_POINT('Origin',(103.,2.5,18.6));
#1542=CARTESIAN_POINT('',(2.5,2.5,2.5));
#1543=CARTESIAN_POINT('Origin',(2.5,2.5,18.6));
#1544=CARTESIAN_POINT('Origin',(52.75,52.75,2.5));
#1545=CARTESIAN_POINT('Origin',(105.5,0.,0.));
#1546=CARTESIAN_POINT('',(105.5,0.,0.));
#1547=CARTESIAN_POINT('Origin',(52.75,52.75,0.));
#1548=UNCERTAINTY_MEASURE_WITH_UNIT(LENGTH_MEASURE(0.01),#1552,
'DISTANCE_ACCURACY_VALUE',
'Maximum model space distance between geometric entities at asserted c
onnectivities');
#1549=UNCERTAINTY_MEASURE_WITH_UNIT(LENGTH_MEASURE(0.01),#1552,
'DISTANCE_ACCURACY_VALUE',
'Maximum model space distance between geometric entities at asserted c
onnectivities');
#1550=(
GEOMETRIC_REPRESENTATION_CONTEXT(3)
GLOBAL_UNCERTAINTY_ASSIGNED_CONTEXT((#1548))
GLOBAL_UNIT_ASSIGNED_CONTEXT((#1552,#1554,#1555))
REPRESENTATION_CONTEXT('','3D')
);
#1551=(
GEOMETRIC_REPRESENTATION_CONTEXT(3)
GLOBAL_UNCERTAINTY_ASSIGNED_CONTEXT((#1549))
GLOBAL_UNIT_ASSIGNED_CONTEXT((#1552,#1554,#1555))
REPRESENTATION_CONTEXT('','3D')
);
#1552=(
LENGTH_UNIT()
NAMED_UNIT(*)
SI_UNIT(.MILLI.,.METRE.)
);
#1553=(
LENGTH_UNIT()
NAMED_UNIT(*)
SI_UNIT($,.METRE.)
);
#1554=(
NAMED_UNIT(*)
PLANE_ANGLE_UNIT()
SI_UNIT($,.RADIAN.)
);
#1555=(
NAMED_UNIT(*)
SI_UNIT($,.STERADIAN.)
SOLID_ANGLE_UNIT()
);
#1556=SHAPE_DEFINITION_REPRESENTATION(#1557,#1558);
#1557=PRODUCT_DEFINITION_SHAPE('',$,#1560);
#1558=SHAPE_REPRESENTATION('',(#976),#1550);
#1559=PRODUCT_DEFINITION_CONTEXT('part definition',#1564,'design');
#1560=PRODUCT_DEFINITION('2026-09-28-19-29-13-467',
'TEMP STEP EXPORT Keyboard case base',#1561,#1559);
#1561=PRODUCT_DEFINITION_FORMATION('',$,#1566);
#1562=PRODUCT_RELATED_PRODUCT_CATEGORY(
'TEMP STEP EXPORT Keyboard case base',
'TEMP STEP EXPORT Keyboard case base',(#1566));
#1563=APPLICATION_PROTOCOL_DEFINITION('international standard',
'automotive_design',2009,#1564);
#1564=APPLICATION_CONTEXT(
'Core Data for Automotive Mechanical Design Process');
#1565=PRODUCT_CONTEXT('part definition',#1564,'mechanical');
#1566=PRODUCT('2026-09-28-19-29-13-467',
'TEMP STEP EXPORT Keyboard case base',$,(#1565));
#1567=PRESENTATION_STYLE_ASSIGNMENT((#1568));
#1568=SURFACE_STYLE_USAGE(.BOTH.,#1569);
#1569=SURFACE_SIDE_STYLE('',(#1570));
#1570=SURFACE_STYLE_FILL_AREA(#1571);
#1571=FILL_AREA_STYLE('Steel - Satin',(#1572));
#1572=FILL_AREA_STYLE_COLOUR('Steel - Satin',#1573);
#1573=COLOUR_RGB('Steel - Satin',0.627450980392157,0.627450980392157,0.627450980392157);
ENDSEC;
END-ISO-10303-21;
